<!DOCTYPE svg PUBLIC "-//W3C//DTD SVG 1.1//EN" "http://www.w3.org/Graphics/SVG/1.1/DTD/svg11.dtd">
<!-- Uploaded to: SVG Repo, www.svgrepo.com, Transformed by: SVG Repo Mixer Tools -->
<svg fill="#000000" height="800px" width="800px" version="1.1" id="Layer_1" xmlns="http://www.w3.org/2000/svg" xmlns:xlink="http://www.w3.org/1999/xlink" viewBox="0 0 64 64" enable-background="new 0 0 64 64" xml:space="preserve" transform="rotate(90)">
<g id="SVGRepo_bgCarrier" stroke-width="0"/>
<g id="SVGRepo_tracerCarrier" stroke-linecap="round" stroke-linejoin="round"/>
<g id="SVGRepo_iconCarrier"> <g id="Equal-sign"> <path d="M43,37H21c-0.5527,0-1,0.4473-1,1s0.4473,1,1,1h22c0.5527,0,1-0.4473,1-1S43.5527,37,43,37z"/> <path d="M43,27H21c-0.5527,0-1,0.4473-1,1s0.4473,1,1,1h22c0.5527,0,1-0.4473,1-1S43.5527,27,43,27z"/> <path d="M32,0c-17.6730995,0-32,14.3268003-32,32c0,17.6730995,14.3268995,32,32,32s32-14.3269005,32-32 C64,14.3268003,49.673111,0,32,0z M32,62c-16.542099,0-30-13.457901-30-30S15.4579,2,32,2c16.5419998,0,30,13.4579,30,30 S48.5419998,62,32,62z"/> </g> </g>
</svg>